<?xml version="1.0" encoding="UTF-8" standalone="no"?>
<!-- Created with Inkscape (http://www.inkscape.org/) -->

<svg
   width="3000"
   height="2000"
   viewBox="0 0 793.74998 529.16667"
   version="1.1"
   id="svg1"
   xml:space="preserve"
   inkscape:version="1.4.2 (f4327f4, 2025-05-13)"
   sodipodi:docname="Perpixa.svg"
   xmlns:inkscape="http://www.inkscape.org/namespaces/inkscape"
   xmlns:sodipodi="http://sodipodi.sourceforge.net/DTD/sodipodi-0.dtd"
   xmlns:xlink="http://www.w3.org/1999/xlink"
   xmlns="http://www.w3.org/2000/svg"
   xmlns:svg="http://www.w3.org/2000/svg"><sodipodi:namedview
     id="namedview1"
     pagecolor="#ffffff"
     bordercolor="#999999"
     borderopacity="1"
     inkscape:showpageshadow="2"
     inkscape:pageopacity="0"
     inkscape:pagecheckerboard="0"
     inkscape:deskcolor="#d1d1d1"
     inkscape:document-units="px"
     showgrid="true"
     inkscape:zoom="0.28671519"
     inkscape:cx="1749.1225"
     inkscape:cy="824.86038"
     inkscape:window-width="1920"
     inkscape:window-height="991"
     inkscape:window-x="-9"
     inkscape:window-y="-9"
     inkscape:window-maximized="1"
     inkscape:current-layer="layer1"><inkscape:grid
       id="grid2"
       units="mm"
       originx="0"
       originy="0"
       spacingx="0.99999998"
       spacingy="1"
       empcolor="#0099e5"
       empopacity="0.30196078"
       color="#0099e5"
       opacity="0.14901961"
       empspacing="5"
       enabled="true"
       visible="true" /></sodipodi:namedview><defs
     id="defs1"><linearGradient
       id="linearGradient6"
       inkscape:collect="always"><stop
         style="stop-color:#16c0f0;stop-opacity:1;"
         offset="0"
         id="stop5" /><stop
         style="stop-color:#a158f7;stop-opacity:1;"
         offset="1"
         id="stop6" /></linearGradient><linearGradient
       inkscape:collect="always"
       xlink:href="#linearGradient6"
       id="linearGradient5"
       gradientUnits="userSpaceOnUse"
       gradientTransform="matrix(3.0606743,0,0,3.2506537,-10.858644,-508.02183)"
       x1="93.912903"
       y1="167.16626"
       x2="172.51982"
       y2="212.54999" /></defs><g
     inkscape:label="Layer 1"
     inkscape:groupmode="layer"
     id="layer1"><rect
       style="font-variation-settings:'wght' 500;opacity:1;fill:#ffffff;fill-opacity:1;stroke:none;stroke-width:1;stroke-opacity:0.984314"
       id="rect6"
       width="793.75"
       height="529.16669"
       x="0"
       y="0"
       ry="1.1225321"
       inkscape:export-filename="Logo.png"
       inkscape:export-xdpi="96"
       inkscape:export-ydpi="96" /><g
       id="g6"
       transform="translate(0,27.619869)"><path
         style="mix-blend-mode:normal;fill:url(#linearGradient5);stroke-width:3.15423"
         d="m 456.78451,177.28168 c -8.39205,-1.91132 -16.40652,-5.34735 -22.59694,-9.68795 -4.01968,-2.81842 -16.50259,-15.40522 -41.57897,-41.9246 -19.70915,-20.84339 -38.14561,-40.110413 -40.96987,-42.815635 -5.97077,-5.719162 -12.61154,-9.520487 -19.75808,-11.310008 -28.63124,-7.169515 -55.61167,15.978844 -55.67037,47.763363 -0.042,20.44165 12.81702,39.13128 32.03026,46.56897 6.67972,2.58573 19.9285,3.13342 28.24788,1.16771 6.57346,-1.55327 21.43523,-9.06247 26.51277,-13.39624 3.8606,-3.29502 4.45669,-3.22719 2.13631,0.24254 -5.80046,8.67481 -16.57062,16.86997 -27.65453,21.04279 -8.46292,3.18602 -22.67243,3.74714 -31.92998,1.26073 -22.35114,-6.00286 -39.74538,-24.58391 -46.03975,-49.18074 -2.04969,-8.00973 -2.06187,-25.85715 -0.021,-33.972624 7.12355,-28.35563 28.09017,-48.321537 55.20217,-52.567427 10.67567,-1.671819 20.59314,-0.688808 31.22954,3.096137 14.22001,5.05986 15.03648,5.783938 60.24989,53.432217 39.27918,41.394567 41.59714,43.675157 47.37344,46.610347 7.54408,3.83344 11.64565,4.85531 19.59597,4.88209 7.42364,0.021 16.77148,-2.80562 22.90049,-6.93454 9.33493,-6.28867 17.28009,-18.2441 19.95536,-30.02744 1.63579,-7.20512 1.23269,-19.129682 -0.87254,-25.802031 -5.5158,-17.484221 -19.04345,-30.833639 -35.37751,-34.911107 -6.61567,-1.65144 -18.33671,-1.250025 -25.79721,0.88305 -6.41617,1.834882 -17.62229,7.551409 -22.67442,11.566827 -5.93318,4.715556 -6.59383,5.010929 -4.61859,2.064824 3.38632,-5.050819 13.8459,-14.606052 19.35268,-17.679409 22.59536,-12.610529 50.96105,-8.282838 70.39197,10.739737 7.49102,7.333537 14.2852,19.521961 17.4914,31.378696 2.3794,8.799024 2.5378,27.687833 0.3045,36.380173 -5.69626,22.17562 -21.11441,40.48148 -40.50237,48.08822 -11.14228,4.37168 -25.774,5.57698 -36.91103,3.04049 z"
         id="path1-1-6"
         sodipodi:nodetypes="csssssssscssscsssscsssssssssssscc"
         inkscape:export-filename="Logo.png"
         inkscape:export-xdpi="96"
         inkscape:export-ydpi="96" /><text
         xml:space="preserve"
         style="font-style:normal;font-variant:normal;font-weight:normal;font-stretch:normal;font-size:158.837px;font-family:Montserrat;-inkscape-font-specification:'Montserrat, @wght=618';font-variant-ligatures:normal;font-variant-caps:normal;font-variant-numeric:normal;font-variant-east-asian:normal;font-variation-settings:'wght' 618;text-align:start;letter-spacing:10.5891px;word-spacing:0px;writing-mode:lr-tb;direction:ltr;text-anchor:start;opacity:1;fill:#0f0f10;fill-opacity:1;stroke:none;stroke-width:1.00063;stroke-opacity:0.984314"
         x="53.549911"
         y="341.27304"
         id="text2"
         transform="scale(0.99951293,1.0004873)"><tspan
           sodipodi:role="line"
           id="tspan2"
           style="font-style:normal;font-variant:normal;font-weight:normal;font-stretch:normal;font-size:158.837px;font-family:Montserrat;-inkscape-font-specification:'Montserrat, @wght=618';font-variant-ligatures:normal;font-variant-caps:normal;font-variant-numeric:normal;font-variant-east-asian:normal;font-variation-settings:'wght' 618;letter-spacing:10.5891px;word-spacing:0px;fill:#0f0f10;fill-opacity:1;stroke:none;stroke-width:1.00063"
           x="53.549911"
           y="341.27304">Perpixa</tspan></text><text
         xml:space="preserve"
         style="font-style:normal;font-variant:normal;font-weight:normal;font-stretch:normal;font-size:33.5139px;font-family:Montserrat;-inkscape-font-specification:'Montserrat, @wght=500';font-variant-ligatures:normal;font-variant-caps:normal;font-variant-numeric:normal;font-variant-east-asian:normal;font-variation-settings:'wght' 500;text-align:start;letter-spacing:0.661458px;writing-mode:lr-tb;direction:ltr;text-anchor:start;opacity:1;fill:#6e6e73;fill-opacity:1;stroke:none;stroke-width:1;stroke-opacity:0.984314"
         x="62.953533"
         y="427.53668"
         id="text6"><tspan
           sodipodi:role="line"
           id="tspan6"
           style="font-style:normal;font-variant:normal;font-weight:normal;font-stretch:normal;font-size:33.5139px;font-family:Montserrat;-inkscape-font-specification:'Montserrat, @wght=500';font-variant-ligatures:normal;font-variant-caps:normal;font-variant-numeric:normal;font-variant-east-asian:normal;font-variation-settings:'wght' 500;letter-spacing:0.661458px;fill:#6e6e73;fill-opacity:1;stroke-width:1"
           x="62.953533"
           y="427.53668">Infinite Tools, Engineered Intelligence</tspan></text></g></g></svg>
